<svg width="1069" height="169" viewBox="0 0 1069 169" fill="none" xmlns="http://www.w3.org/2000/svg">
<circle cx="84.5" cy="84.5" r="84.5" fill="#F0F0F8"/>
<circle cx="142.5" cy="84.5" r="84.5" fill="#B4B8FF"/>
<path d="M331.332 18.4C343.677 18.4 354.363 20.4667 363.39 24.6C372.549 28.7333 379.585 34.6 384.496 42.2C389.408 49.8 391.864 58.8 391.864 69.2C391.864 79.4667 389.408 88.4667 384.496 96.2C379.585 103.8 372.549 109.667 363.39 113.8C354.363 117.8 343.677 119.8 331.332 119.8H303.257V158.4H271V18.4H331.332ZM329.54 93.4C339.23 93.4 346.598 91.3333 351.642 87.2C356.686 82.9333 359.208 76.9333 359.208 69.2C359.208 61.3333 356.686 55.3333 351.642 51.2C346.598 46.9333 339.23 44.8 329.54 44.8H303.257V93.4H329.54Z" fill="white"/>
<path d="M463.482 160C452.198 160 442.043 157.667 433.017 153C424.123 148.2 417.154 141.6 412.11 133.2C407.065 124.8 404.543 115.267 404.543 104.6C404.543 93.9333 407.065 84.4 412.11 76C417.154 67.6 424.123 61.0667 433.017 56.4C442.043 51.6 452.198 49.2 463.482 49.2C474.765 49.2 484.853 51.6 493.747 56.4C502.641 61.0667 509.61 67.6 514.654 76C519.699 84.4 522.221 93.9333 522.221 104.6C522.221 115.267 519.699 124.8 514.654 133.2C509.61 141.6 502.641 148.2 493.747 153C484.853 157.667 474.765 160 463.482 160ZM463.482 134.4C471.446 134.4 477.951 131.733 482.995 126.4C488.172 120.933 490.76 113.667 490.76 104.6C490.76 95.5333 488.172 88.3333 482.995 83C477.951 77.5333 471.446 74.8 463.482 74.8C455.517 74.8 448.946 77.5333 443.769 83C438.592 88.3333 436.004 95.5333 436.004 104.6C436.004 113.667 438.592 120.933 443.769 126.4C448.946 131.733 455.517 134.4 463.482 134.4Z" fill="white"/>
<path d="M542.983 10H574.045V158.4H542.983V10Z" fill="white"/>
<path d="M731.901 158.4L731.702 74.4L690.684 143.6H676.148L635.33 76.2V158.4H605.064V18.4H631.746L683.914 105.4L735.286 18.4H761.768L762.167 158.4H731.901Z" fill="white"/>
<path d="M903.156 132.4V158.4H795.235V18.4H900.568V44.4H827.293V74.8H892.006V100H827.293V132.4H903.156Z" fill="white"/>
<path d="M928.822 18.4H992.141C1007.27 18.4 1020.61 21.3333 1032.16 27.2C1043.84 32.9333 1052.87 41.0667 1059.24 51.6C1065.75 62.1333 1069 74.4 1069 88.4C1069 102.4 1065.75 114.667 1059.24 125.2C1052.87 135.733 1043.84 143.933 1032.16 149.8C1020.61 155.533 1007.27 158.4 992.141 158.4H928.822V18.4ZM990.548 131.8C1004.49 131.8 1015.57 127.933 1023.8 120.2C1032.16 112.333 1036.34 101.733 1036.34 88.4C1036.34 75.0667 1032.16 64.5333 1023.8 56.8C1015.57 48.9333 1004.49 45 990.548 45H961.079V131.8H990.548Z" fill="white"/>
</svg>
