<svg width="20" height="18" viewBox="0 0 20 18" fill="none" xmlns="http://www.w3.org/2000/svg">
<path d="M19.7329 6.36966L12.0758 0.69317C11.464 0.239862 10.7463 0 10 0C9.25383 0 8.53605 0.239626 7.92427 0.69317L0.267157 6.36966C-0.0157325 6.57933 -0.0850659 6.99302 0.112712 7.29326C0.310268 7.5935 0.700046 7.66708 0.982935 7.45717L2.57271 6.27862V15.271C2.57271 16.7757 3.72627 18 5.14405 18H14.8561C16.2738 18 17.4274 16.7757 17.4274 15.271V6.27862L19.0172 7.45717C19.1261 7.53807 19.2509 7.57675 19.3745 7.57675C19.5718 7.57675 19.7658 7.47793 19.8874 7.29326C20.0849 6.99278 20.0158 6.57933 19.7329 6.36966ZM16.1774 15.2712C16.1774 16.0445 15.5847 16.6736 14.8561 16.6736H5.14405C4.41538 16.6736 3.82271 16.0445 3.82271 15.2712V5.35219L8.64005 1.78092C9.45338 1.17785 10.5465 1.17785 11.36 1.78092L16.1774 5.35219V15.2712ZM10 8.16921C11.4178 8.16921 12.5714 9.39352 12.5714 10.8983V13.32C12.5714 13.6863 12.2916 13.9832 11.9465 13.9832C11.6014 13.9832 11.3216 13.6863 11.3216 13.32V10.8983C11.3216 10.1249 10.7289 9.49588 10.0003 9.49588C9.2716 9.49588 8.67894 10.1249 8.67894 10.8983V13.32C8.67894 13.6863 8.39916 13.9832 8.05405 13.9832C7.70894 13.9832 7.42916 13.6863 7.42916 13.32V10.8983C7.42871 9.39352 8.58227 8.16921 10 8.16921Z" fill="#8385AA"/>
</svg>
