<svg width="19" height="20" viewBox="0 0 19 20" fill="none" xmlns="http://www.w3.org/2000/svg">
<path d="M18.9447 12.5C18.8267 12 18.5198 11.5952 18.095 11.3333L15.9 10L18.0714 8.66667C18.9683 8.11905 19.2515 6.95238 18.7087 6.04762L17.2453 3.59524C16.9857 3.16667 16.5609 2.85714 16.0889 2.7381C15.5932 2.61905 15.0976 2.69048 14.6491 2.95238L12.8082 4.09524V1.90476C12.8082 0.857143 11.9585 0 10.92 0H8.08782C7.04934 0 6.19967 0.857143 6.19967 1.90476V4.09524L4.33512 2.95238C3.91029 2.69048 3.39105 2.61905 2.89541 2.7381C2.39977 2.85714 1.99854 3.16667 1.73892 3.59524L0.275601 6.04762C-0.267242 6.95238 0.0159808 8.11905 0.912852 8.66667L3.08422 10L0.912852 11.3333C0.488018 11.5952 0.181194 12.0238 0.0631845 12.5C-0.0548249 12.9762 0.0159806 13.5 0.275601 13.9524L1.73892 16.4048C2.28176 17.3095 3.43825 17.5952 4.33512 17.0476L6.19967 15.9048V18.0952C6.19967 19.1429 7.04934 20 8.08782 20H10.92C11.9585 20 12.8082 19.1429 12.8082 18.0952V15.9048L14.6727 17.0476C15.5696 17.5952 16.7261 17.3095 17.269 16.4048L18.7323 13.9524C18.9919 13.5 19.0627 13 18.9447 12.5ZM17.9062 13.4524L16.4429 15.9048C16.1833 16.3571 15.5932 16.5 15.1448 16.2381L12.5722 14.6429C12.4306 14.5476 12.2418 14.5476 12.1001 14.6429C11.9585 14.7381 11.8641 14.881 11.8641 15.0476V18.0952C11.8641 18.619 11.4393 19.0476 10.92 19.0476H8.08782C7.56858 19.0476 7.14375 18.619 7.14375 18.0952V15.0476C7.14375 14.881 7.04934 14.7143 6.90773 14.6429C6.83692 14.5952 6.76612 14.5714 6.67171 14.5714C6.5773 14.5714 6.5065 14.5952 6.43569 14.6429L3.83948 16.2143C3.39105 16.4762 2.801 16.3333 2.54138 15.881L1.07807 13.4286C0.936454 13.2143 0.912852 12.9524 0.960056 12.7143C1.03086 12.4762 1.17247 12.2619 1.38489 12.119L4.24072 10.381C4.38233 10.2857 4.47674 10.1429 4.47674 9.97619C4.47674 9.80952 4.38233 9.64286 4.24072 9.57143L1.40849 7.85714C1.19607 7.71429 1.03086 7.52381 0.983657 7.26191C0.912852 7.02381 0.960056 6.76191 1.10167 6.54762L2.56498 4.09524C2.70659 3.88095 2.89541 3.71429 3.15503 3.66667C3.39105 3.59524 3.65067 3.64286 3.86309 3.78571L6.43569 5.35714C6.5773 5.45238 6.76612 5.45238 6.90773 5.35714C7.04934 5.26191 7.14375 5.11905 7.14375 4.95238V1.90476C7.14375 1.38095 7.56858 0.952381 8.08782 0.952381H10.92C11.4393 0.952381 11.8641 1.38095 11.8641 1.90476V4.95238C11.8641 5.11905 11.9585 5.28571 12.1001 5.35714C12.2418 5.45238 12.4306 5.42857 12.5722 5.35714L15.1684 3.78571C15.3808 3.64286 15.6404 3.61905 15.8764 3.66667C16.1125 3.7381 16.3249 3.88095 16.4665 4.09524L17.9298 6.54762C18.1894 7 18.0478 7.59524 17.5994 7.85714L14.7435 9.59524C14.6019 9.69048 14.5075 9.83333 14.5075 10C14.5075 10.1667 14.6019 10.3333 14.7435 10.4048L17.5994 12.1429C17.8118 12.2857 17.977 12.4762 18.0242 12.7381C18.0714 13 18.0478 13.2381 17.9062 13.4524Z" fill="#8385AA"/>
</svg>
