<svg width="6" height="12" viewBox="0 0 6 12" fill="none" xmlns="http://www.w3.org/2000/svg">
<path d="M5.06201 5.95669L5.43656 5.62546C5.60279 5.81344 5.60395 6.0955 5.43926 6.28483L5.06201 5.95669ZM0.692744 1.77068C0.509812 1.56382 0.52921 1.24783 0.736069 1.0649C0.942928 0.88197 1.25892 0.901367 1.44185 1.10823L0.692744 1.77068ZM1.44455 10.8774C1.26332 11.0857 0.9475 11.1077 0.739149 10.9265C0.530798 10.7452 0.508812 10.4294 0.690042 10.2211L1.44455 10.8774ZM4.68746 6.28791L0.692744 1.77068L1.44185 1.10823L5.43656 5.62546L4.68746 6.28791ZM5.43926 6.28483L1.44455 10.8774L0.690042 10.2211L4.68476 5.62854L5.43926 6.28483Z" fill="#97B3B7"/>
</svg>
