<svg width="6" height="12" viewBox="0 0 6 12" fill="none" xmlns="http://www.w3.org/2000/svg">
<path d="M1.24463 5.95669L0.870077 5.62546C0.703846 5.81344 0.702691 6.0955 0.867376 6.28483L1.24463 5.95669ZM5.6139 1.77068C5.79683 1.56382 5.77743 1.24783 5.57057 1.0649C5.36371 0.88197 5.04772 0.901367 4.86479 1.10823L5.6139 1.77068ZM4.86209 10.8774C5.04332 11.0857 5.35914 11.1077 5.56749 10.9265C5.77584 10.7452 5.79783 10.4294 5.6166 10.2211L4.86209 10.8774ZM1.61918 6.28791L5.6139 1.77068L4.86479 1.10823L0.870077 5.62546L1.61918 6.28791ZM0.867376 6.28483L4.86209 10.8774L5.6166 10.2211L1.62188 5.62854L0.867376 6.28483Z" fill="#97B3B7"/>
</svg>
