<svg width="175" height="174" viewBox="0 0 175 174" fill="none" xmlns="http://www.w3.org/2000/svg">
<path d="M163.904 14.9531L83.3573 110.789L48.8374 72.4547" stroke="#7DC763" stroke-width="6" stroke-linecap="round" stroke-linejoin="round"/>
<path d="M131.17 37.4234C132.318 38.6175 134.217 38.6545 135.411 37.5059C136.606 36.3574 136.643 34.4582 135.494 33.2641L131.17 37.4234ZM148.252 51.7305C147.542 50.2334 145.753 49.5951 144.256 50.3048C142.759 51.0146 142.12 52.8036 142.83 54.3008L148.252 51.7305ZM148.938 81.5625C148.938 116.699 120.514 145.172 85.4651 145.172V151.172C123.84 151.172 154.938 120.001 154.938 81.5625H148.938ZM85.4651 145.172C50.4158 145.172 21.9922 116.699 21.9922 81.5625H15.9922C15.9922 120.001 47.0905 151.172 85.4651 151.172V145.172ZM21.9922 81.5625C21.9922 46.4262 50.4158 17.9531 85.4651 17.9531V11.9531C47.0905 11.9531 15.9922 43.1241 15.9922 81.5625H21.9922ZM85.4651 17.9531C103.414 17.9531 119.62 25.4156 131.17 37.4234L135.494 33.2641C122.862 20.1304 105.114 11.9531 85.4651 11.9531V17.9531ZM142.83 54.3008C146.746 62.5596 148.938 71.8002 148.938 81.5625H154.938C154.938 70.8929 152.54 60.776 148.252 51.7305L142.83 54.3008Z" fill="#7DC763"/>
</svg>
