<svg width="19" height="19" viewBox="0 0 19 19" fill="none" xmlns="http://www.w3.org/2000/svg">
<path fill-rule="evenodd" clip-rule="evenodd" d="M9.5 1.46154C5.06047 1.46154 1.46154 5.06047 1.46154 9.5V17.5385H9.5C13.9395 17.5385 17.5385 13.9395 17.5385 9.5C17.5385 5.06047 13.9395 1.46154 9.5 1.46154ZM0 9.5C0 4.2533 4.2533 0 9.5 0C14.7467 0 19 4.2533 19 9.5C19 14.7467 14.7467 19 9.5 19H0.730769C0.327176 19 0 18.6728 0 18.2692V9.5ZM4.38462 7.67308C4.38462 7.26947 4.71178 6.94231 5.11538 6.94231H13.8846C14.2882 6.94231 14.6154 7.26947 14.6154 7.67308C14.6154 8.07668 14.2882 8.40385 13.8846 8.40385H5.11538C4.71178 8.40385 4.38462 8.07668 4.38462 7.67308ZM5.11538 10.5962C4.71178 10.5962 4.38462 10.9233 4.38462 11.3269C4.38462 11.7305 4.71178 12.0577 5.11538 12.0577H9.5C9.9036 12.0577 10.2308 11.7305 10.2308 11.3269C10.2308 10.9233 9.9036 10.5962 9.5 10.5962H5.11538Z" fill="#8385AA"/>
</svg>
