<svg width="19" height="19" viewBox="0 0 19 19" fill="none" xmlns="http://www.w3.org/2000/svg">
<path d="M9.5 0C4.26 0 0 4.26 0 9.5C0 14.74 4.26 19 9.5 19C14.74 19 19 14.74 19 9.5C19 4.26 14.74 0 9.5 0ZM13.58 10.7H10.7V13.58C10.7 14.24 10.16 14.78 9.5 14.78C8.84 14.78 8.3 14.24 8.3 13.58V10.7H5.42C4.76 10.7 4.22 10.16 4.22 9.5C4.22 8.84 4.76 8.3 5.42 8.3H8.3V5.42C8.3 4.76 8.84 4.22 9.5 4.22C10.16 4.22 10.7 4.76 10.7 5.42V8.3H13.58C14.24 8.3 14.78 8.84 14.78 9.5C14.78 10.16 14.24 10.7 13.58 10.7Z" fill="#FC9890"/>
</svg>
