<svg width="60" height="22" viewBox="0 0 60 22" fill="none" xmlns="http://www.w3.org/2000/svg">
<path d="M58.9999 9.10773C58.9999 13.5855 55.3699 17.2155 50.8922 17.2155C46.4144 17.2155 42.7844 13.5855 42.7844 9.10773C42.7844 4.62995 46.4144 1 50.8922 1C55.3699 1 58.9999 4.62995 58.9999 9.10773Z" stroke="#D2D4FF" stroke-width="2"/>
<path d="M4.20517 11.5365C5.06563 11.5365 5.81044 11.6799 6.4396 11.9667C7.07801 12.2536 7.56838 12.6607 7.91071 13.188C8.25305 13.7154 8.42422 14.34 8.42422 15.0616C8.42422 15.7741 8.25305 16.3986 7.91071 16.9352C7.56838 17.4626 7.07801 17.8697 6.4396 18.1565C5.81044 18.4341 5.06563 18.5729 4.20517 18.5729H2.24831V21.2514H0V11.5365H4.20517ZM4.08026 16.7409C4.75568 16.7409 5.26918 16.5975 5.62077 16.3107C5.97236 16.0146 6.14815 15.5983 6.14815 15.0616C6.14815 14.5157 5.97236 14.0994 5.62077 13.8126C5.26918 13.5165 4.75568 13.3685 4.08026 13.3685H2.24831V16.7409H4.08026Z" fill="#35397A"/>
<path d="M13.416 21.3624C12.6296 21.3624 11.9218 21.2005 11.2926 20.8767C10.6727 20.5436 10.187 20.0856 9.83537 19.5027C9.48378 18.9198 9.30799 18.2583 9.30799 17.5181C9.30799 16.7779 9.48378 16.1164 9.83537 15.5335C10.187 14.9506 10.6727 14.4972 11.2926 14.1734C11.9218 13.8403 12.6296 13.6738 13.416 13.6738C14.2025 13.6738 14.9056 13.8403 15.5255 14.1734C16.1454 14.4972 16.6312 14.9506 16.9828 15.5335C17.3344 16.1164 17.5102 16.7779 17.5102 17.5181C17.5102 18.2583 17.3344 18.9198 16.9828 19.5027C16.6312 20.0856 16.1454 20.5436 15.5255 20.8767C14.9056 21.2005 14.2025 21.3624 13.416 21.3624ZM13.416 19.586C13.9711 19.586 14.4245 19.401 14.7761 19.0309C15.1369 18.6515 15.3174 18.1473 15.3174 17.5181C15.3174 16.889 15.1369 16.3893 14.7761 16.0192C14.4245 15.6399 13.9711 15.4502 13.416 15.4502C12.8609 15.4502 12.4029 15.6399 12.042 16.0192C11.6812 16.3893 11.5008 16.889 11.5008 17.5181C11.5008 18.1473 11.6812 18.6515 12.042 19.0309C12.4029 19.401 12.8609 19.586 13.416 19.586Z" fill="#35397A"/>
<path d="M18.9573 10.9536H21.1223V21.2514H18.9573V10.9536Z" fill="#35397A"/>
<path d="M32.1249 21.2514L32.111 15.4225L29.2521 20.2244H28.2389L25.3939 15.5474V21.2514H23.2843V11.5365H25.1441L28.7802 17.5736L32.3608 11.5365H34.2067L34.2344 21.2514H32.1249Z" fill="#35397A"/>
<path d="M44.0615 19.4472V21.2514H36.5393V11.5365H43.881V13.3407H38.7738V15.4502H43.2843V17.1989H38.7738V19.4472H44.0615Z" fill="#35397A"/>
<path d="M45.8504 11.5365H50.2637C51.3185 11.5365 52.2483 11.7401 53.0533 12.1472C53.8675 12.545 54.4966 13.1094 54.9408 13.8403C55.3941 14.5713 55.6208 15.4225 55.6208 16.394C55.6208 17.3655 55.3941 18.2167 54.9408 18.9476C54.4966 19.6785 53.8675 20.2475 53.0533 20.6546C52.2483 21.0525 51.3185 21.2514 50.2637 21.2514H45.8504V11.5365ZM50.1527 19.4056C51.1242 19.4056 51.8967 19.1373 52.4704 18.6006C53.0533 18.0548 53.3447 17.3192 53.3447 16.394C53.3447 15.4687 53.0533 14.7378 52.4704 14.2012C51.8967 13.6553 51.1242 13.3823 50.1527 13.3823H48.0987V19.4056H50.1527Z" fill="#35397A"/>
</svg>
