<svg width="22" height="22" viewBox="0 0 22 22" fill="none" xmlns="http://www.w3.org/2000/svg">
<path d="M11.0003 6.76953C9.87822 6.76953 8.8022 7.21528 8.00874 8.00874C7.21529 8.80221 6.76953 9.87822 6.76953 11.0003C6.76953 12.1224 7.21528 13.1985 8.00874 13.9919C8.80221 14.7854 9.87822 15.2311 11.0003 15.2311C12.1224 15.2311 13.1984 14.7854 13.9919 13.9919C14.7854 13.1984 15.2311 12.1224 15.2311 11.0003C15.2298 9.87861 14.7837 8.80331 13.9904 8.01024C13.1973 7.21698 12.122 6.77084 11.0003 6.76953ZM11.0003 13.5388C10.327 13.5388 9.68143 13.2714 9.20526 12.7954C8.72929 12.3192 8.46185 11.6737 8.46185 11.0003C8.46185 10.327 8.72929 9.68143 9.20526 9.20526C9.68141 8.72929 10.327 8.46185 11.0003 8.46185C11.6737 8.46185 12.3192 8.72929 12.7954 9.20526C13.2714 9.68141 13.5388 10.327 13.5388 11.0003C13.5388 11.6737 13.2714 12.3192 12.7954 12.7954C12.3192 13.2714 11.6737 13.5388 11.0003 13.5388Z" fill="#8B9097"/>
<path d="M21.3105 8.26438L18.8262 7.79899C18.8169 7.77614 18.8075 7.75329 18.7975 7.73043L20.2231 5.64395C20.3343 5.48133 20.3851 5.2849 20.3672 5.08868C20.3491 4.89263 20.2631 4.70885 20.1241 4.56928L17.4308 1.87594C17.2912 1.73693 17.1074 1.65099 16.9114 1.63286C16.7151 1.61492 16.5187 1.66572 16.3561 1.77697L14.2704 3.20277L14.201 3.17406L13.7349 0.689793L13.7347 0.689604C13.6983 0.495819 13.5953 0.320921 13.4437 0.195109C13.292 0.0691286 13.101 0.000193407 12.9039 0H9.09616C8.89897 0.000188862 8.70802 0.0691286 8.55636 0.195109C8.40469 0.320902 8.30176 0.4958 8.2653 0.689604L7.79916 3.17387L7.72985 3.20258L5.6439 1.77698C5.48128 1.66573 5.28485 1.61492 5.08863 1.63286C4.89258 1.651 4.7088 1.73693 4.56923 1.87594L1.87589 4.56929C1.73688 4.70887 1.65095 4.89264 1.63281 5.08868C1.61487 5.28492 1.66568 5.48135 1.77693 5.64396L3.2035 7.73063C3.1933 7.75348 3.18405 7.77634 3.17479 7.79919L0.690522 8.26458V8.26439C0.496361 8.30065 0.321274 8.40378 0.195109 8.55563C0.0689401 8.70749 0 8.89882 0 9.09621V12.9039C0 13.1013 0.0687513 13.2922 0.194727 13.4443C0.320708 13.5961 0.495794 13.6993 0.689559 13.7357L3.17383 14.2011C3.18308 14.224 3.19253 14.2468 3.20254 14.2697L1.77693 16.3562C1.66568 16.5188 1.61488 16.7152 1.63282 16.9114C1.65095 17.1075 1.73689 17.2913 1.8759 17.4308L4.56924 20.1242C4.70882 20.2632 4.89259 20.3491 5.08863 20.3672C5.28488 20.3852 5.4813 20.3344 5.64391 20.2231L7.72966 18.7966L7.79898 18.8253L8.26512 21.3095H8.26531C8.30157 21.5035 8.40451 21.6786 8.55617 21.8048C8.70784 21.9307 8.89898 21.9999 9.09616 22.0001H12.9039C13.1011 21.9999 13.292 21.9309 13.4437 21.805C13.5953 21.6792 13.6983 21.5043 13.7347 21.3105L14.2009 18.8262L14.2702 18.7975L16.3561 20.2231C16.5191 20.3345 16.7157 20.3857 16.9124 20.3674C17.109 20.3493 17.2929 20.2627 17.4325 20.1232L20.1242 17.4307C20.2632 17.2912 20.3491 17.1074 20.3673 16.9113C20.3852 16.7151 20.3344 16.5187 20.2232 16.3561L18.7966 14.2694C18.8068 14.2465 18.816 14.2237 18.8253 14.2008L21.3096 13.7355V13.7356C21.5037 13.6994 21.6788 13.5963 21.805 13.4444C21.9311 13.2925 22.0001 13.1012 22.0001 12.9038V9.09611C22.0001 8.89874 21.9313 8.70779 21.8054 8.55573C21.6794 8.40388 21.5043 8.30076 21.3105 8.2643L21.3105 8.26438ZM20.3077 12.2017L18.046 12.6248C17.8987 12.6523 17.7612 12.7188 17.6478 12.817C17.5345 12.9154 17.4495 13.042 17.4012 13.184C17.3077 13.4558 17.1972 13.7213 17.0705 13.9793C17.0042 14.114 16.9749 14.2636 16.9857 14.4132C16.9964 14.5628 17.0467 14.7069 17.1313 14.8306L18.4309 16.7311L16.7318 18.4302L14.8313 17.1306C14.7078 17.0458 14.5637 16.9953 14.4141 16.9844C14.2645 16.9736 14.1147 17.0027 13.9803 17.0688C13.7221 17.1963 13.4561 17.3075 13.1839 17.4012C13.0423 17.4498 12.9159 17.5349 12.8179 17.6483C12.7201 17.7616 12.654 17.8989 12.6264 18.046L12.2016 20.3078H9.79838L9.3753 18.0468C9.34773 17.8996 9.28162 17.7623 9.18378 17.6492C9.08576 17.5359 8.9594 17.4507 8.81775 17.4021C8.54558 17.3083 8.27964 17.1972 8.02144 17.0695C7.88697 17.0034 7.73719 16.9743 7.58759 16.9853C7.438 16.9961 7.2939 17.0465 7.17037 17.1313L5.26802 18.4309L3.56908 16.732L4.86873 14.8315V14.8313C4.95334 14.7076 5.00359 14.5637 5.01435 14.4141C5.02512 14.2645 4.99584 14.1147 4.92955 13.9803C4.80281 13.7223 4.69232 13.4565 4.59883 13.1847C4.55048 13.0429 4.46548 12.9162 4.35216 12.8179C4.23883 12.7195 4.10133 12.6532 3.95401 12.6255L1.69226 12.2016V9.79841L3.95401 9.37533C4.10133 9.34776 4.23883 9.28127 4.35216 9.18306C4.46548 9.08465 4.55048 8.95811 4.59883 8.81607C4.69232 8.54428 4.80281 8.27874 4.92955 8.02074C4.99584 7.88607 5.02512 7.73648 5.01435 7.58689C5.00358 7.4373 4.95334 7.29319 4.86873 7.16948L3.56908 5.26809L5.26802 3.56915L7.16849 4.8688H7.16867C7.2922 4.9536 7.43631 5.00403 7.5859 5.0148C7.73549 5.02575 7.88526 4.99666 8.01974 4.93056C8.27793 4.80288 8.54388 4.69182 8.81605 4.59795C8.95771 4.54941 9.08407 4.46423 9.18209 4.3509C9.27992 4.23777 9.34603 4.10045 9.3736 3.95332L9.79839 1.69229H12.2014L12.6245 3.95332H12.6247C12.6523 4.10045 12.7184 4.23776 12.8162 4.3509C12.9142 4.46423 13.0406 4.54941 13.1822 4.59795C13.4544 4.69182 13.7204 4.80288 13.9786 4.93056C14.113 4.99666 14.2628 5.02575 14.4124 5.0148C14.562 5.00403 14.7061 4.9536 14.8296 4.8688L16.7301 3.56915L18.4292 5.26828L17.1296 7.16875C17.045 7.29246 16.9947 7.43639 16.9839 7.58598C16.9732 7.73557 17.0025 7.88534 17.0688 8.01982C17.1955 8.27782 17.306 8.54357 17.3995 8.81535C17.4478 8.9572 17.533 9.08393 17.6461 9.18215C17.7595 9.28055 17.897 9.34684 18.0443 9.37461L20.306 9.79769L20.3077 12.2017Z" fill="#8B9097"/>
</svg>
