<svg width="12" height="10" viewBox="0 0 12 10" fill="none" xmlns="http://www.w3.org/2000/svg">
<path d="M5.5703 0.72225C5.76413 0.396449 6.23587 0.39645 6.4297 0.72225L7.75128 2.94358C7.82608 3.06931 7.95219 3.15597 8.09639 3.18072L10.7362 3.63386C11.1394 3.70308 11.2933 4.20085 10.9996 4.48563L9.20704 6.22367C9.09226 6.33495 9.03761 6.49442 9.06002 6.65272L9.40139 9.06428C9.4562 9.45144 9.06538 9.74885 8.70683 9.59283L6.1995 8.50181C6.07226 8.44644 5.92774 8.44644 5.8005 8.50181L3.29317 9.59283C2.93462 9.74885 2.5438 9.45144 2.59861 9.06428L2.93998 6.65272C2.96239 6.49442 2.90774 6.33495 2.79296 6.22367L1.00039 4.48563C0.706667 4.20085 0.860629 3.70308 1.26384 3.63386L3.90362 3.18072C4.04781 3.15597 4.17392 3.06931 4.24872 2.94358L5.5703 0.72225Z" fill="#FFC700"/>
</svg>
