<svg width="25" height="9" viewBox="0 0 25 9" fill="none" xmlns="http://www.w3.org/2000/svg">
<path d="M10.4124 0.154297L8.71143 7.98934H10.7733L12.4227 0.154297H10.4124Z" fill="white"/>
<path d="M7.42268 0.154561L5.30926 5.46382L4.43297 0.927756C4.32988 0.412293 3.91751 0.154561 3.50514 0.154561H0.0515337L0 0.360759C0.721648 0.515398 1.49486 0.773123 2.01032 1.03085C2.3196 1.18549 2.37112 1.34013 2.47422 1.70095L4.07217 7.93807H6.23709L9.53607 0.103027H7.42268V0.154561Z" fill="white"/>
<path d="M23.4535 0.154297H21.701C21.2886 0.154297 20.9793 0.360501 20.8247 0.721325L17.7834 7.98934H19.8968L20.3092 6.80378H22.8865L23.1443 7.98934H24.9999L23.4535 0.154297ZM20.9793 5.20583L22.0618 2.26771L22.6803 5.20583H20.9793Z" fill="white"/>
<path d="M15.1032 2.31958C15.1032 2.06185 15.3609 1.75258 15.9795 1.64949C16.2888 1.59794 17.062 1.59795 17.9898 2.01032L18.3506 0.36083C17.8867 0.206192 17.2166 0 16.4434 0C14.4331 0 13.0413 1.08247 13.0413 2.57732C13.0413 3.71133 14.0723 4.32988 14.7939 4.6907C15.5671 5.05153 15.8248 5.30927 15.8248 5.67009C15.8248 6.18556 15.2063 6.44329 14.5877 6.44329C13.5568 6.44329 12.9898 6.18556 12.5259 5.92782L12.165 7.62885C12.629 7.83503 13.5053 8.04121 14.4331 8.04121C16.5465 8.04121 17.9382 7.01031 17.9382 5.36083C17.9382 3.40207 15.0516 3.24742 15.1032 2.31958Z" fill="white"/>
</svg>
